<?xml version="1.0" encoding="utf-8"?>
<!-- Generator: Adobe Illustrator 22.1.0, SVG Export Plug-In . SVG Version: 6.00 Build 0)  -->
<svg version="1.1" id="Capa_1" xmlns="http://www.w3.org/2000/svg" xmlns:xlink="http://www.w3.org/1999/xlink" x="0px" y="0px"
	 viewBox="0 0 740 488" style="enable-background:new 0 0 740 488;" xml:space="preserve">
<style type="text/css">
	.st0{fill:#4560AB;}
</style>
<path class="st0" d="M0.5,0.5h435c5.3,6.8,13.3,17.4,22,31c14.1,22.1,13,25.4,21,35c19.7,23.9,48.4,30.6,55,32c14.2,3,25.8,2,49,0
	c12.5-1.1,22.8-2.7,30-4c6.9,0.5,29.1,3.1,49,21c20.1,18.1,24.8,40.2,26,47c0.8,4.3,6.5,38.8-18,66c-19.5,21.7-50.7,30.3-80,22
	c-9.1-2.6-37.7-9.4-69,4c-7.7,3.3-28,11.9-41,32c-6.1,9.3-6.6,14.9-16,32c-6.8,12.3-13.4,21.8-18,28c-14.1,18.4-35.4,42.1-66,64
	c-42.8,30.6-84.4,43.8-111,50c-28.9,7.2-89,17.9-160-2c-50.3-14.1-86.6-38.2-108-55C0.5,269.2,0.5,134.8,0.5,0.5z"/>
</svg>
