<?xml version="1.0" encoding="utf-8"?>
<!-- Generator: Adobe Illustrator 22.1.0, SVG Export Plug-In . SVG Version: 6.00 Build 0)  -->
<svg version="1.1" id="Capa_1" xmlns="http://www.w3.org/2000/svg" xmlns:xlink="http://www.w3.org/1999/xlink" x="0px" y="0px"
	 viewBox="0 0 2832 1888" style="enable-background:new 0 0 2832 1888;" xml:space="preserve">
<style type="text/css">
	.st0{opacity:0.63;fill:#5D6DAE;}
	.st1{fill:#5D6DAE;}
	.st2{fill:#495C9B;}
	.st3{fill:none;stroke:#495C9B;stroke-width:60;stroke-miterlimit:10;}
	.st4{fill:none;stroke:#495C9B;stroke-width:20;stroke-miterlimit:10;}
	.st5{fill:none;stroke:#495C9B;stroke-width:40;stroke-miterlimit:10;}
	.st6{fill:none;stroke:#495C9B;stroke-width:14;stroke-miterlimit:10;}
</style>
<path class="st0" d="M0,0c876.9,0,1753.7,0,2630.6,0c25,23.9,56.1,60.5,69.7,108.3c15.8,55.9-2,93.4-8.7,142.8
	c-6.6,48-4,116.6,39.2,203.5c109,139.9,111.6,242.9,91.5,312.9c-29,100.5-104.7,131.6-139.4,246c-38,125.6,16.6,209,30.5,279.4
	c56,284.4-510,576.1-592.5,618.6c-525.9,271-1349,260.8-2120.9,0V0z"/>
<path class="st1" d="M0,0c855.5,0,1711,0,2566.5,0c24.4,23.9,54.8,60.5,68,108.3c15.4,55.9-1.9,93.4-8.5,142.8
	c-6.4,48-3.9,116.6,38.2,203.5c106.3,139.9,108.9,242.9,89.2,312.9c-28.3,100.5-102.2,131.6-136,246
	c-37.1,125.6,16.2,209,29.7,279.4c54.6,284.4-497.5,576.1-578.1,618.6c-513.1,271-1316.1,260.8-2069.2,0V0z"/>
<path class="st2" d="M4,1509c132.6-1.8,250.7,72.9,297,186c51.8,126.5-10,243.6-19,260c38.7,0,77.3,0,116,0
	c6.6-18.9,65.8-198.3-47-363C227.8,1412.2,13.8,1416.5,0,1417C1.3,1447.7,2.7,1478.3,4,1509z"/>
<path class="st3" d="M161.1,705.9L62.9,495c-12.6-27.2-0.9-59.4,26.3-72l211-98.2c27.2-12.6,59.4-0.9,72,26.3L470.4,562
	c12.6,27.2,0.9,59.4-26.3,72l-211,98.2C205.9,744.8,173.7,733.1,161.1,705.9z"/>
<path class="st4" d="M701.6,527.7l10.9-38.2c8.2-28.8,38.2-45.5,67-37.3l38.3,10.9c28.8,8.2,45.5,38.2,37.3,67l-10.9,38.2
	c-8.2,28.8-38.2,45.5-67,37.3l-38.3-10.9C710.1,586.5,693.4,556.4,701.6,527.7z"/>
<path class="st2" d="M802.4-54C745.5,54.4,612.3,105.7,469.2,76C309.2,42.9,209.8-76.5,196-93.6C178.9-62.3,161.7-31,144.6,0.3
	c17.5,16.5,185.6,170.9,414,177.3C808,184.6,898.2,8.8,903.8-2.7C870-19.8,836.2-36.9,802.4-54z"/>
<circle class="st5" cx="1513.5" cy="699.5" r="94.5"/>
<circle class="st4" cx="955.5" cy="1462.5" r="76.5"/>
<circle class="st6" cx="381.5" cy="918.5" r="56.5"/>
<circle class="st5" cx="1418.5" cy="1658.5" r="94.5"/>
<path class="st4" d="M1145.6,1018.7l1.3-4.4c8.2-28.8,38.2-45.5,67-37.3l4,1.1c28.8,8.2,45.5,38.2,37.3,67l-1.3,4.4
	c-8.2,28.8-38.2,45.5-67,37.3l-4-1.1C1154.1,1077.5,1137.4,1047.4,1145.6,1018.7z"/>
<circle class="st5" cx="2120.5" cy="42.5" r="94.5"/>
<circle class="st4" cx="1531.5" cy="177.5" r="76.5"/>
<path class="st5" d="M1919.2,1486.7l-157.9-102.3c-25.1-16.3-32.3-49.9-16-75l102.4-158.1c16.3-25.1,49.9-32.3,75-16l157.9,102.3
	c25.1,16.3,32.3,49.9,16,75l-102.4,158.1C1977.9,1495.8,1944.3,1503,1919.2,1486.7z"/>
<path class="st2" d="M2638,1393c-10.3-10.6-140.5-150.3-98-341c37.3-167.2,177.7-241.2,197-251c8.9-17.9,19.5-44.4,24-78
	c2.9-21.6,2.5-40.7,1-56c-196.4,85.2-326.3,266.8-331.6,464.4C2425,1334.1,2553,1471.3,2581,1500c10.6-14.2,22.1-31.5,33-52
	C2624.6,1428.1,2632.3,1409.4,2638,1393z"/>
</svg>
